[h264 @ 0x55a01e263400] Reinit context to 1920x1088, pix_fmt: yuvj420p
Input #0, mov,mp4,m4a,3gp,3g2,mj2, from '/var/www/html/project/media/video/original/VID20240124162825.mp4':
  Metadata:
    major_brand     : mp42
    minor_version   : 0
    compatible_brands: isommp42
    creation_time   : 2024-01-24T15:28:53.000000Z
    com.android.version: 13
    com.android.capture.fps: 30.000000
  Duration: 00:00:26.02, start: 0.000000, bitrate: 18521 kb/s
    Stream #0:0(eng): Video: h264 (High), 1 reference frame (avc1 / 0x31637661), yuvj420p(pc, bt470bg/bt470bg/smpte170m, left), 1920x1080 (1920x1088), 18340 kb/s, 30 fps, 30 tbr, 90k tbn, 60 tbc (default)
    Metadata:
      creation_time   : 2024-01-24T15:28:53.000000Z
      handler_name    : VideoHandle
    Stream #0:1(eng): Audio: aac (LC) (mp4a / 0x6134706D), 48000 Hz, stereo, fltp, 96 kb/s (default)
    Metadata:
      creation_time   : 2024-01-24T15:28:53.000000Z
      handler_name    : SoundHandle
Input #1, png_pipe, from '/var/www/html/project/static/images/templates/logo.png':
  Duration: N/A, bitrate: N/A
    Stream #1:0: Video: png, 1 reference frame, rgba(pc), 1920x1080 [SAR 2835:2835 DAR 16:9], 25 tbr, 25 tbn, 25 tbc
[h264 @ 0x55a01e27ccc0] Reinit context to 1280x720, pix_fmt: yuv420p
Input #2, mov,mp4,m4a,3gp,3g2,mj2, from '/var/www/html/project/static/images/templates/Codino.mp4':
  Metadata:
    major_brand     : mp42
    minor_version   : 1
    compatible_brands: isommp41mp42
    creation_time   : 2021-07-11T07:02:58.000000Z
  Duration: 00:00:02.00, start: 0.000000, bitrate: 1007 kb/s
    Stream #2:0(ita): Audio: aac (LC) (mp4a / 0x6134706D), 44100 Hz, stereo, fltp, 102 kb/s (default)
    Metadata:
      creation_time   : 2021-07-11T07:02:58.000000Z
      handler_name    : Core Media Audio
    Stream #2:1(und): Video: h264 (High), 1 reference frame (avc1 / 0x31637661), yuv420p(tv, bt709, progressive, left), 1280x720 [SAR 1:1 DAR 16:9], 813 kb/s, 25 fps, 25 tbr, 25k tbn, 50k tbc (default)
    Metadata:
      creation_time   : 2021-07-11T07:02:58.000000Z
      handler_name    : Core Media Video
[Parsed_scale_0 @ 0x55a01e2c0140] w:1280 h:720 flags:'bilinear' interl:0
[Parsed_scale_2 @ 0x55a01e393180] w:1280 h:720 flags:'bilinear' interl:0
[Parsed_scale_4 @ 0x55a01e2eea40] w:1280 h:720 flags:'bilinear' interl:0
Stream mapping:
  Stream #0:0 (h264) -> scale
  Stream #0:1 (aac) -> concat:in0:a0
  Stream #1:0 (png) -> scale
  Stream #2:0 (aac) -> concat:in1:a0
  Stream #2:1 (h264) -> scale
  concat:out:v0 -> Stream #0:0 (libx264)
  concat:out:a0 -> Stream #0:1 (aac)
Press [q] to stop, [?] for help
[h264 @ 0x55a01e414a00] Reinit context to 1920x1088, pix_fmt: yuvj420p
[h264 @ 0x55a01e682e00] Reinit context to 1280x720, pix_fmt: yuv420p
[Parsed_scale_0 @ 0x55a01fc5e580] w:1280 h:720 flags:'bilinear' interl:0
[Parsed_scale_2 @ 0x55a01e3cb300] w:1280 h:720 flags:'bilinear' interl:0
[Parsed_scale_4 @ 0x55a01fc67cc0] w:1280 h:720 flags:'bilinear' interl:0
[graph 0 input from stream 0:0 @ 0x55a01fc6c400] w:1920 h:1080 pixfmt:yuvj420p tb:1/90000 fr:30/1 sar:0/1 sws_param:flags=2
[graph 0 input from stream 1:0 @ 0x55a01fc6d480] w:1920 h:1080 pixfmt:rgba tb:1/25 fr:25/1 sar:2835/2835 sws_param:flags=2
[graph 0 input from stream 2:1 @ 0x55a01fc6e500] w:1280 h:720 pixfmt:yuv420p tb:1/25000 fr:25/1 sar:1/1 sws_param:flags=2
[graph_0_in_0_1 @ 0x55a01fc6f4c0] tb:1/48000 samplefmt:fltp samplerate:48000 chlayout:0x3
[graph_0_in_2_0 @ 0x55a01fc70600] tb:1/44100 samplefmt:fltp samplerate:44100 chlayout:0x3
[Parsed_concat_7 @ 0x55a01fc6a480] auto-inserting filter 'auto_resampler_0' between the filter 'graph_0_in_2_0' and the filter 'Parsed_concat_7'
[swscaler @ 0x55a01fc8ad00] deprecated pixel format used, make sure you did set range correctly
[Parsed_scale_0 @ 0x55a01fc5e580] w:1920 h:1080 fmt:yuvj420p sar:0/1 -> w:1280 h:720 fmt:yuvj420p sar:0/1 flags:0x2
[Parsed_setsar_1 @ 0x55a01fc5e7c0] w:1280 h:720 sar:0/1 dar:16/9 -> sar:1/1 dar:16/9
[Parsed_scale_2 @ 0x55a01e3cb300] w:1920 h:1080 fmt:rgba sar:2835/2835 -> w:1280 h:720 fmt:yuva420p sar:1/1 flags:0x2
[Parsed_setsar_3 @ 0x55a01fc670c0] w:1280 h:720 sar:1/1 dar:16/9 -> sar:1/1 dar:16/9
[Parsed_overlay_6 @ 0x55a01fc69340] main w:1280 h:720 fmt:yuvj420p overlay w:1280 h:720 fmt:yuva420p
[Parsed_overlay_6 @ 0x55a01fc69340] [framesync @ 0x55a01fc69468] Selected 1/90000 time base
[Parsed_overlay_6 @ 0x55a01fc69340] [framesync @ 0x55a01fc69468] Sync level 2
[swscaler @ 0x55a01fd2c6c0] deprecated pixel format used, make sure you did set range correctly
[Parsed_scale_4 @ 0x55a01fc67cc0] w:1280 h:720 fmt:yuv420p sar:1/1 -> w:1280 h:720 fmt:yuvj420p sar:1/1 flags:0x2
[Parsed_setsar_5 @ 0x55a01fc68780] w:1280 h:720 sar:1/1 dar:16/9 -> sar:1/1 dar:16/9
[auto_resampler_0 @ 0x55a01fc75740] ch:2 chl:stereo fmt:fltp r:44100Hz -> ch:2 chl:stereo fmt:fltp r:48000Hz
[libx264 @ 0x55a01e2b1440] using SAR=1/1
[libx264 @ 0x55a01e2b1440] using cpu capabilities: MMX2 SSE2Fast SSSE3 SSE4.2 AVX FMA3 BMI2 AVX2
[libx264 @ 0x55a01e2b1440] profile High, level 3.1
[libx264 @ 0x55a01e2b1440] 264 - core 155 r2917 0a84d98 - H.264/MPEG-4 AVC codec - Copyleft 2003-2018 - http://www.videolan.org/x264.html - options: cabac=1 ref=1 deblock=1:0:0 analyse=0x3:0x113 me=hex subme=2 psy=1 psy_rd=1.00:0.00 mixed_ref=0 me_range=16 chroma_me=1 trellis=0 8x8dct=1 cqm=0 deadzone=21,11 fast_pskip=1 chroma_qp_offset=0 threads=22 lookahead_threads=5 sliced_threads=0 nr=0 decimate=1 interlaced=0 bluray_compat=0 constrained_intra=0 bframes=3 b_pyramid=2 b_adapt=1 b_bias=0 direct=1 weightb=1 open_gop=0 weightp=1 keyint=250 keyint_min=25 scenecut=40 intra_refresh=0 rc_lookahead=10 rc=crf mbtree=1 crf=18.0 qcomp=0.60 qpmin=0 qpmax=69 qpstep=4 ip_ratio=1.40 aq=1:1.00
Output #0, mp4, to '/var/www/html/project/media/video/watermarks/VID20240124162825.mp4':
  Metadata:
    major_brand     : mp42
    minor_version   : 0
    compatible_brands: isommp42
    com.android.capture.fps: 30.000000
    com.android.version: 13
    encoder         : Lavf58.29.100
    Stream #0:0: Video: h264 (libx264), 1 reference frame (avc1 / 0x31637661), yuvj420p(pc, progressive), 1280x720 [SAR 1:1 DAR 16:9], q=-1--1, 30 fps, 15360 tbn, 30 tbc (default)
    Metadata:
      encoder         : Lavc58.54.100 libx264
    Side data:
      cpb: bitrate max/min/avg: 0/0/0 buffer size: 0 vbv_delay: -1
    Stream #0:1: Audio: aac (LC) (mp4a / 0x6134706D), 48000 Hz, stereo, fltp, delay 1024, 128 kb/s (default)
    Metadata:
      encoder         : Lavc58.54.100 aac
[Parsed_overlay_6 @ 0x55a01fc69340] [framesync @ 0x55a01fc69468] Sync level 0
[Parsed_concat_7 @ 0x55a01fc6a480] EOF on in0:v0, 1 streams left in segment.
[Parsed_concat_7 @ 0x55a01fc6a480] EOF on in0:a0, 0 streams left in segment.
[Parsed_concat_7 @ 0x55a01fc6a480] Segment finished at pts=26022729
[Parsed_concat_7 @ 0x55a01fc6a480] EOF on in1:v0, 1 streams left in segment.
[Parsed_concat_7 @ 0x55a01fc6a480] EOF on in1:a0, 0 streams left in segment.
[Parsed_concat_7 @ 0x55a01fc6a480] Segment finished at pts=28041416
No more output streams to write to, finishing.
frame=  829 fps= 64 q=-1.0 Lsize=   24755kB time=00:00:28.04 bitrate=7229.9kbits/s speed=2.15x    
[AVIOContext @ 0x55a01e261440] Statistics: 0 seeks, 26 writeouts
video:24291kB audio:434kB subtitle:0kB other streams:0kB global headers:0kB muxing overhead: 0.123249%
Input file #0 (/var/www/html/project/media/video/original/VID20240124162825.mp4):
  Input stream #0:0 (video): 779 packets read (59530274 bytes); 779 frames decoded; 
  Input stream #0:1 (audio): 1219 packets read (312079 bytes); 1219 frames decoded (1248256 samples); 
  Total: 1998 packets (59842353 bytes) demuxed
Input file #1 (/var/www/html/project/static/images/templates/logo.png):
  Input stream #1:0 (video): 1 packets read (111578 bytes); 1 frames decoded; 
  Total: 1 packets (111578 bytes) demuxed
Input file #2 (/var/www/html/project/static/images/templates/Codino.mp4):
  Input stream #2:0 (audio): 89 packets read (26579 bytes); 87 frames decoded (89024 samples); 
  Input stream #2:1 (video): 50 packets read (203365 bytes); 50 frames decoded; 
  Total: 139 packets (229944 bytes) demuxed
Output file #0 (/var/www/html/project/media/video/watermarks/VID20240124162825.mp4):
  Output stream #0:0 (video): 829 frames encoded; 829 packets muxed (24873627 bytes); 
  Output stream #0:1 (audio): 1314 frames encoded (1345153 samples); 1315 packets muxed (444321 bytes); 
  Total: 2144 packets (25317948 bytes) muxed
[AVIOContext @ 0x55a01e2ede80] Statistics: 2 seeks, 100 writeouts
[libx264 @ 0x55a01e2b1440] frame I:5     Avg QP:16.13  size:155793
[libx264 @ 0x55a01e2b1440] frame P:313   Avg QP:20.89  size: 59314
[libx264 @ 0x55a01e2b1440] frame B:511   Avg QP:25.17  size: 10819
[libx264 @ 0x55a01e2b1440] consecutive B-frames: 14.2%  8.0%  8.3% 69.5%
[libx264 @ 0x55a01e2b1440] mb I  I16..4: 20.5%  5.7% 73.8%
[libx264 @ 0x55a01e2b1440] mb P  I16..4:  0.6%  1.8%  4.2%  P16..4: 31.1% 23.1% 28.8%  0.0%  0.0%    skip:10.3%
[libx264 @ 0x55a01e2b1440] mb B  I16..4:  0.1%  0.1%  0.0%  B16..8: 21.9%  9.6%  2.9%  direct:15.8%  skip:49.6%  L0:23.5% L1:35.8% BI:40.7%
[libx264 @ 0x55a01e2b1440] 8x8 transform intra:23.3% inter:28.2%
[libx264 @ 0x55a01e2b1440] coded y,uvDC,uvAC intra: 87.0% 72.0% 36.8% inter: 32.4% 13.6% 1.8%
[libx264 @ 0x55a01e2b1440] i16 v,h,dc,p: 43% 13% 34% 10%
[libx264 @ 0x55a01e2b1440] i8 v,h,dc,ddl,ddr,vr,hd,vl,hu: 10% 18% 29%  6%  7%  5%  7%  5% 12%
[libx264 @ 0x55a01e2b1440] i4 v,h,dc,ddl,ddr,vr,hd,vl,hu: 11% 18% 12% 10% 10%  7% 11%  8% 13%
[libx264 @ 0x55a01e2b1440] i8c dc,h,v,p: 55% 21% 15%  8%
[libx264 @ 0x55a01e2b1440] Weighted P-Frames: Y:9.9% UV:0.6%
[libx264 @ 0x55a01e2b1440] kb/s:7106.55
[aac @ 0x55a01e413780] Qavg: 1854.954
[AVIOContext @ 0x55a01e26a3c0] Statistics: 62671892 bytes read, 155 seeks
[AVIOContext @ 0x55a01e2c8900] Statistics: 111578 bytes read, 0 seeks
[AVIOContext @ 0x55a01e2c5f80] Statistics: 1530915 bytes read, 42 seeks
